<svg id="Livello_1" data-name="Livello 1" xmlns="http://www.w3.org/2000/svg" viewBox="0 0 625.5 196.49"><defs><style>.cls-1{fill:#fff;}</style></defs><title>UNEATN Text Only Monochrome</title><path class="cls-1" d="M203.34,237.88V293q0,15.78.74,19.3t2.38,4.91a5.72,5.72,0,0,0,3.82,1.39,17.65,17.65,0,0,0,6.95-1.69l1.39,3.47-27.19,11.21H187V312.31q-11.71,12.7-17.86,16a27.28,27.28,0,0,1-13,3.27,20.77,20.77,0,0,1-13.25-4.42,22.82,22.82,0,0,1-7.79-11.36q-2.18-6.95-2.18-19.65V255.55q0-6.45-1.39-8.93a9.26,9.26,0,0,0-4.12-3.82q-2.73-1.34-9.87-1.24v-3.67h31.86v60.83q0,12.7,4.42,16.67a15.39,15.39,0,0,0,10.67,4,22.25,22.25,0,0,0,9.68-2.68Q179.52,314,187,306.46V255q0-7.74-2.83-10.47t-11.76-2.93v-3.67Z" transform="translate(-117.5 -193.22)"/><path class="cls-1" d="M251.77,254.46q16-19.25,30.47-19.25a21.88,21.88,0,0,1,12.8,3.72q5.36,3.72,8.53,12.26,2.18,6,2.18,18.26v38.8q0,8.63,1.39,11.71a8.14,8.14,0,0,0,3.52,3.87q2.43,1.39,9,1.39v3.57h-45v-3.57h1.89q6.35,0,8.88-1.94a10.15,10.15,0,0,0,3.52-5.71q.4-1.49.4-9.33V271q0-12.4-3.23-18t-10.87-5.61q-11.81,0-23.52,12.9v47.93q0,9.23,1.09,11.41a9.17,9.17,0,0,0,3.82,4.22q2.43,1.34,9.87,1.34v3.57h-45v-3.57h2q6.95,0,9.38-3.52t2.43-13.45V274.5q0-16.37-.74-19.95t-2.28-4.86a6.21,6.21,0,0,0-4.12-1.29,19.07,19.07,0,0,0-6.65,1.49l-1.49-3.57L247.5,235.2h4.27Z" transform="translate(-117.5 -193.22)"/><path class="cls-1" d="M443,205.28a9,9,0,0,1,.11,2.3c-.08.51-.15,1-.22,1.43a8.38,8.38,0,0,0-.11,1.43,9.16,9.16,0,0,0,.44,2.3q-4.61,7.46-10.64,10.2a53,53,0,0,1-13.05,3.95q-7,1.21-14.37,2.52a42.62,42.62,0,0,0-14.59,5.7,6.33,6.33,0,0,0-5.16,0q-2.3,1.1-6.69.66a7.3,7.3,0,0,1-3.29,1.86q-2,.55-3.95,1.21a8.78,8.78,0,0,1,.77,4.06,6.76,6.76,0,0,0,.55,3.4,95.31,95.31,0,0,0,17-.22q9.32-.87,18.32-1.1c.14.73.07,1.21-.22,1.43s-.37.62-.22,1.21a21.09,21.09,0,0,1,3.07,2.74q1.53,1.65,3.07,3.18a16.47,16.47,0,0,0,3.18,2.52,6.08,6.08,0,0,0,3.84.77,13.2,13.2,0,0,1,1.21,3.84,8,8,0,0,1-.55,4.28q-3.51,2.42-7,4.94a58.24,58.24,0,0,1-7.35,4.5,43.45,43.45,0,0,1-8.12,3.18,30.34,30.34,0,0,1-9.54,1h-1.65a2.65,2.65,0,0,1-1.43-.66,7.34,7.34,0,0,1-4.94.66,7.37,7.37,0,0,0-4.94.66,13,13,0,0,0-5.81-1,17.18,17.18,0,0,1-6-.77,75.53,75.53,0,0,0-6.36,9.87,86.13,86.13,0,0,0-5,11.19,67.06,67.06,0,0,0,12.39.88q4.94-.22,9.32-.77l9-1.1a80.83,80.83,0,0,1,11.63-.33A29.12,29.12,0,0,1,406,294a54.53,54.53,0,0,0,11.08-2.52,7.13,7.13,0,0,1,3.07,2.3q1.32,1.65,2.52,3.07a20.17,20.17,0,0,0,2.52,2.52,4.19,4.19,0,0,0,3.29.88,4.64,4.64,0,0,1,1.21,2.08q.33,1.21.55,2.3a4.71,4.71,0,0,0,.77,1.87,1.74,1.74,0,0,0,1.87.55,33,33,0,0,1-7.57,11.08,29.37,29.37,0,0,1-9.76,5.81A68.79,68.79,0,0,1,403.36,327q-6.69,1.1-14.81,2.63a5.48,5.48,0,0,1-3.29-.11,7.94,7.94,0,0,0-3.07-.55q-5,1.09-12.07,2a92.74,92.74,0,0,1-14.26.66A65,65,0,0,1,342,329.77,22.54,22.54,0,0,1,331.29,324a7.13,7.13,0,0,1-2.3-3.62,4.89,4.89,0,0,0-3-3.18,60.18,60.18,0,0,0-.88-6.36q-.66-3.51-1.32-7.35t-1-7.57a22.87,22.87,0,0,1,.33-6.8,13.74,13.74,0,0,1,2.74-5.92,6.59,6.59,0,0,0,1.43-5.7,1.52,1.52,0,0,0,1.32-1.21c.14-.66.73-.91,1.75-.77q1.32-3.95,2.85-7.46t3.18-6.8q1.65-3.29,3.29-6.69t3.18-7.57a18,18,0,0,1-4.5-6.25,34.28,34.28,0,0,1-2.08-6.8q-.66-3.4-1.1-7a45.74,45.74,0,0,0-1.54-7.35,18.81,18.81,0,0,1,5.37-5.37,31.92,31.92,0,0,1,6.91-3.4,59.4,59.4,0,0,1,8.12-2.19q4.39-.87,9.21-2,8.77-2.85,15.69-4.39t13.6-2.52q6.69-1,13.93-1.86T423,195.19a5.53,5.53,0,0,0,3.73,2q.87-2,2.08-1.21c.8.51,1.13.11,1-1.21a20.75,20.75,0,0,0,5.59,6.25A36.07,36.07,0,0,0,443,205.28Z" transform="translate(-117.5 -193.22)"/><path class="cls-1" d="M553.73,310.36a35.15,35.15,0,0,1-3.84,7.57,32.78,32.78,0,0,1-13.49,11.74,22.87,22.87,0,0,1-8.77,2.19,10.77,10.77,0,0,1-3.84-1.43,20.63,20.63,0,0,0-2.08-1.43c-.44-.29-.84-.55-1.21-.77s-.7-.4-1-.55l-2.63-1.1.88-2.85a3.38,3.38,0,0,0-.22-2.74,16.89,16.89,0,0,0-2.63-2.74l-1.32-1.32a8.69,8.69,0,0,1-1.1-1.32l-3.73-4.17,5.92-1.54q5.48-1.53,7.35-3.95t1.43-8.12a18.16,18.16,0,0,0-7.35-.22q-3,.66-6,1.54-3.95,1.1-8,1.87a47.76,47.76,0,0,1-8.88.77c-1.17,0-2.27,0-3.29-.11s-2.12-.18-3.29-.33l-2.19-.44q-.44-2.41-.88-2.74a7.75,7.75,0,0,1-.88-.77,17.83,17.83,0,0,1-2.3-3,5.94,5.94,0,0,1-.55-4.72,10.43,10.43,0,0,1-1.32-3.95,24.63,24.63,0,0,0-2,5.48l-.88,2.19-2.19.44a1.47,1.47,0,0,0-.66,1,4.68,4.68,0,0,0-.22,1.21l-1.1,3.73a8.31,8.31,0,0,1-.88.77,7.94,7.94,0,0,0-.88.77,40.49,40.49,0,0,1-1.1,3.95q-.66,2-1.32,3.73-1.1,2.85-1.87,5.59a15.08,15.08,0,0,0-.55,5.38l-.88,2.41a9.18,9.18,0,0,1-2.41,2.08c-.88.51-1.75,1-2.63,1.43a3.82,3.82,0,0,1-1.21.77c-.51.22-.92.4-1.21.55l-.66,2.41-2.63.44c-1.61.29-2.74.51-3.4.66a10.88,10.88,0,0,1-2.3.22l-2.19-.22q-2.42-2-3.73-3.18a21.36,21.36,0,0,0-3.07-2.3,11,11,0,0,1-2.19-3.95c-.14-.88-.29-1.68-.44-2.41a12.24,12.24,0,0,1-.55-2.19,2.18,2.18,0,0,0-.55-1.32L432,312.77l2.41-2,.22-3.73q4.39-11.19,9.32-21.5t10.2-21.06q1.75-3.51,3.4-7t3.4-7a4.82,4.82,0,0,1-.22-1.54,5.36,5.36,0,0,1,.44-2q2.41-3.73,3.95-6.69t3.07-6q1.75-3.73,3.62-7.24a52.74,52.74,0,0,1,4.72-7.24l3.51-1.54c.44-.14.95-.33,1.54-.55a5.57,5.57,0,0,1,2-.33l3.29.44a32.81,32.81,0,0,0,10.75-8A111.24,111.24,0,0,0,507,197.38l2.19-3.07,2.85,1.75a12.61,12.61,0,0,0,3.07,1.21q2,.55,4.17,1.21,3.95.88,7.46,2a13.73,13.73,0,0,1,5.7,3.29A26.12,26.12,0,0,1,534,209a28.67,28.67,0,0,0,.66,3.51q.66,3.73,1.21,7.46t.77,8.34q1.09,3.73,1.86,7.35t1.43,7.35q1.1,5.26,2.19,10.2a59.83,59.83,0,0,0,2.85,9.32,6.49,6.49,0,0,1,2.19.22,12.05,12.05,0,0,1,2.3-.66c.8-.14,1.72-.29,2.74-.44l2.41-.22.88,2.19q.22,1.1,2.19,2.19a8.09,8.09,0,0,1,4.17,1.21,22.8,22.8,0,0,1,2.41,2.08,6.78,6.78,0,0,0,1.75,1.32l3.29,1.32L567.56,275a29.43,29.43,0,0,1-6.25,7.57,38.66,38.66,0,0,1-9.1,6c.14.88.25,1.72.33,2.52a11,11,0,0,0,.55,2.52q.66,3.73,1.1,7.68a37.83,37.83,0,0,1,0,8.12Zm-63.4-38q6.58-.44,12-1t12-1.86Q512.71,263,511,255.85t-3.73-14.15l-1.32,2.19a93.34,93.34,0,0,0-8.45,10.31,123.25,123.25,0,0,0-6.91,10.75l-2.63,3.95q-1.32,2-2.41,3.95a15.58,15.58,0,0,1,2.52-.22A11.67,11.67,0,0,0,490.34,272.41Z" transform="translate(-117.5 -193.22)"/><path class="cls-1" d="M681.85,223.27A99.45,99.45,0,0,0,670,224q-6.37.77-12.5,1.65-4.39.66-8.45,1.1t-7.35.66q-1.54,4.83-3.07,8.56t-3.29,7.24q-1.76,3.73-3.18,7.57T629.42,259a68,68,0,0,0-3.62,6.47,32.37,32.37,0,0,0-2.3,6.69,24.42,24.42,0,0,0-3.95,6.91,64.68,64.68,0,0,0-2,6.25l-.88,2.63a5.79,5.79,0,0,0-1.54,2.08,2.82,2.82,0,0,1-1.1,1.43,12.4,12.4,0,0,1-1.54,4.83,13.08,13.08,0,0,0-.66,2.08,7.42,7.42,0,0,0-.22,1.43q0,2.2-1.1,2.85a6.17,6.17,0,0,1,0,2.3q-.22,1.21-.44,2.3a11.44,11.44,0,0,0-.44,4.17q.66.88,1.21,1.54a3.93,3.93,0,0,1,.77,1.75,9.46,9.46,0,0,0,2,1.1,17.54,17.54,0,0,0,2.63,1.54l2,2.19q1.1,6.37-2,10.09-3.29,4.16-11.19,4.17h-2.63a5.28,5.28,0,0,1-1.32-1.75q-1.76-.66-2.85-1.1a4.41,4.41,0,0,1-2-1.75q-2.85-1.32-4.61-2.19l-2-1.1V323.3a13.92,13.92,0,0,1-2.3-4.39,38.06,38.06,0,0,1-1.21-4.83q-.44-2-1-3.73a12.07,12.07,0,0,0-1.43-3.07q-.44-12.72,2.41-21.5t5.92-16.89q1.75-4.39,3.51-8.88a92.83,92.83,0,0,0,3.07-9.32l2-2.19q1.53-3.51,2.52-5.81t2.08-4.72q.66-1.53,1.21-3t1-2.52q-1.32,0-2.41.11c-.73.08-1.46.19-2.19.33s-1.68.26-2.41.33a21.48,21.48,0,0,1-2.19.11,7.65,7.65,0,0,1-2.19-.22,12.54,12.54,0,0,1-5.26,1.1h-2.19a6,6,0,0,1-1.21-.11,5.2,5.2,0,0,0-1-.11,7.9,7.9,0,0,0-3.51.66h-7.24a7,7,0,0,0-1.1.11,6.67,6.67,0,0,1-1.1.11,17.9,17.9,0,0,1-3.29-.33,12.44,12.44,0,0,1-3.73-1.43q-2.63-3.51-3.51-3.73l-2-2.63a14.37,14.37,0,0,0-.66-2.52q-.44-1.2-.88-2.74-.88-2.19-1.65-4.72a20.79,20.79,0,0,1-.77-6,5.53,5.53,0,0,1,.88-2.63c.44-.58.8-1.1,1.1-1.54l.66-3.29,2.85.22h6.14q7,0,14.26-.55t14.92-1.21l8.88-.88L616,200q.87-2,1.75-3.73l2.19-1.1q3.95-.22,5.59,1a24.25,24.25,0,0,1,2.74,2.3q4.82-.44,9.76-1t10-1.43q7.45-1.09,15-2a127.25,127.25,0,0,1,14.59-.88q3.07,0,5.92.22a52.44,52.44,0,0,1,5.26.66l2.19,1.54a8.21,8.21,0,0,0,1.86,2.41c.8.73,1.65,1.46,2.52,2.19a50.78,50.78,0,0,1,5.27,5.7q2.63,3.29,2,9.65a10.08,10.08,0,0,1-2.63,3.07l-2,2.63-2.19-.22a8.37,8.37,0,0,0-2.41.33c-.73.22-1.46.48-2.19.77a18.07,18.07,0,0,1-1.75.77,12.54,12.54,0,0,1-2,.55c-1.32,0-2.38,0-3.18-.11S682.72,223.27,681.85,223.27Z" transform="translate(-117.5 -193.22)"/><path class="cls-1" d="M675.12,254.46q16-19.25,30.47-19.25a21.88,21.88,0,0,1,12.8,3.72q5.36,3.72,8.54,12.26,2.18,6,2.18,18.26v38.8q0,8.63,1.39,11.71a8.14,8.14,0,0,0,3.52,3.87q2.43,1.39,9,1.39v3.57H698v-3.57h1.89q6.35,0,8.88-1.94a10.15,10.15,0,0,0,3.52-5.71q.4-1.49.4-9.33V271q0-12.4-3.23-18t-10.87-5.61q-11.81,0-23.52,12.9v47.93q0,9.23,1.09,11.41a9.17,9.17,0,0,0,3.82,4.22q2.43,1.34,9.87,1.34v3.57H645v-3.57h2q6.94,0,9.38-3.52t2.43-13.45V274.5q0-16.37-.74-19.95t-2.28-4.86a6.21,6.21,0,0,0-4.12-1.29,19.07,19.07,0,0,0-6.65,1.49l-1.49-3.57,27.39-11.11h4.27Z" transform="translate(-117.5 -193.22)"/><path class="cls-1" d="M194.9,359.4a29.49,29.49,0,0,1,3.73-1.06,17.58,17.58,0,0,1,3.68-.4q8.07,0,8.08,8.42a17.35,17.35,0,0,1-1,5.76,14.85,14.85,0,0,1-2.86,4.94,14,14,0,0,1-4.61,3.43,14.44,14.44,0,0,1-6.23,1.29,12.12,12.12,0,0,1-3.19-.4l-2,8.2h-2.92Zm-1.7,19.32a10,10,0,0,0,2.8.4,10.6,10.6,0,0,0,4.88-1.09,11.34,11.34,0,0,0,3.6-2.84,12.35,12.35,0,0,0,2.22-3.94,13.61,13.61,0,0,0,.76-4.45q0-3.32-1.47-4.85a5.82,5.82,0,0,0-4.39-1.53,12.31,12.31,0,0,0-2.06.18,21.39,21.39,0,0,0-2.15.49Z" transform="translate(-117.5 -193.22)"/><path class="cls-1" d="M217.89,359.48a24.24,24.24,0,0,1,3.7-1.11,18.42,18.42,0,0,1,4-.44,13.71,13.71,0,0,1,1.95.13,8.7,8.7,0,0,1,1.77.44l-.75,2.61a12,12,0,0,0-3.54-.53,15.23,15.23,0,0,0-2.3.18,16.19,16.19,0,0,0-2.3.53l-4.83,20.07h-2.87Z" transform="translate(-117.5 -193.22)"/><path class="cls-1" d="M234.42,358.46h2.87l-5.54,22.91h-2.87Zm1.14-6.69a2.27,2.27,0,0,1,.64-1.75,2,2,0,0,1,1.4-.6A1.73,1.73,0,0,1,239,350a2.1,2.1,0,0,1,.49,1.44,2,2,0,0,1-.71,1.64,2.25,2.25,0,0,1-1.42.58,1.67,1.67,0,0,1-1.33-.51A2,2,0,0,1,235.56,351.77Z" transform="translate(-117.5 -193.22)"/><path class="cls-1" d="M244.57,359.26q.66-.22,1.51-.44t1.77-.4q.93-.18,1.91-.29a16.67,16.67,0,0,1,1.86-.11,10.68,10.68,0,0,1,3.39.51,5.25,5.25,0,0,1,2.55,1.84,18.52,18.52,0,0,1,4-1.84,11.6,11.6,0,0,1,3.34-.51,11.34,11.34,0,0,1,2.81.33,5.81,5.81,0,0,1,2.28,1.13,5.48,5.48,0,0,1,1.55,2.17,9.13,9.13,0,0,1,.58,3.5,16.51,16.51,0,0,1-.18,2.37q-.18,1.22-.49,2.46l-2.75,11.39h-2.87l2.44-10.19q.35-1.46.66-3a14.31,14.31,0,0,0,.31-2.88,6.36,6.36,0,0,0-.35-2.28,3.46,3.46,0,0,0-1-1.44,3.59,3.59,0,0,0-1.48-.73,7.85,7.85,0,0,0-1.81-.2,11.52,11.52,0,0,0-2.41.33,11.78,11.78,0,0,0-3.56,1.66,11,11,0,0,1,.27,2.48,16.51,16.51,0,0,1-.18,2.37,25,25,0,0,1-.49,2.46l-2.75,11.39h-2.87L255,371.18q.35-1.46.66-3a14.31,14.31,0,0,0,.31-2.88,6.32,6.32,0,0,0-.36-2.28,3.46,3.46,0,0,0-1-1.44,3.6,3.6,0,0,0-1.49-.73,7.92,7.92,0,0,0-1.82-.2,14.4,14.4,0,0,0-2.18.18,19.19,19.19,0,0,0-2.13.44l-4.83,20.07H239.3Z" transform="translate(-117.5 -193.22)"/><path class="cls-1" d="M291,381.64a7.24,7.24,0,0,1-.46-1.22,8.88,8.88,0,0,1-.29-1.4,10.48,10.48,0,0,1-3.26,2.22,9.15,9.15,0,0,1-3.53.71,7.6,7.6,0,0,1-2.71-.49A6.09,6.09,0,0,1,278.5,380a7.52,7.52,0,0,1-1.58-2.64,11,11,0,0,1-.6-3.83,17.16,17.16,0,0,1,1.15-6.43,14.05,14.05,0,0,1,3.21-4.9,14.48,14.48,0,0,1,4.88-3.12,16.66,16.66,0,0,1,6.14-1.11,15.16,15.16,0,0,1,5.28.93l-3.41,13.78q-.27,1.11-.44,2.08a10.42,10.42,0,0,0-.18,1.86,11,11,0,0,0,.22,2.26,11.56,11.56,0,0,0,.8,2.35Zm2.57-20.69q-.8-.18-1.47-.27a10.52,10.52,0,0,0-1.38-.09,10.79,10.79,0,0,0-4.88,1.06,11.2,11.2,0,0,0-3.6,2.79,12.36,12.36,0,0,0-2.24,3.94,13.57,13.57,0,0,0-.78,4.52,11,11,0,0,0,.35,3,5.23,5.23,0,0,0,1,2A3.72,3.72,0,0,0,282,379a4.63,4.63,0,0,0,1.76.33,7.09,7.09,0,0,0,3.42-.86,11.25,11.25,0,0,0,3-2.46,12.49,12.49,0,0,1,.35-2.75q.35-1.55.66-2.79Z" transform="translate(-117.5 -193.22)"/><path class="cls-1" d="M324.59,381.64a7.54,7.54,0,0,1-.44-1.17,8.6,8.6,0,0,1-.31-1.44,8.63,8.63,0,0,1-1,1,7.92,7.92,0,0,1-1.52.93,11.34,11.34,0,0,1-2,.71,9.66,9.66,0,0,1-2.43.29,7.09,7.09,0,0,1-3.25-.69,6.25,6.25,0,0,1-2.21-1.84,7.6,7.6,0,0,1-1.26-2.73,13.42,13.42,0,0,1-.4-3.3,17.59,17.59,0,0,1,.91-5.54,14.5,14.5,0,0,1,2.78-4.94,14.23,14.23,0,0,1,4.75-3.57,15.53,15.53,0,0,1,6.76-1.37,16,16,0,0,1,2.87.27l2.54-10.68,3-.53L327,373.44a12.68,12.68,0,0,0-.33,1.55,10.06,10.06,0,0,0-.11,1.46,12.87,12.87,0,0,0,.22,2.44,8.88,8.88,0,0,0,.8,2.3Zm2.59-20.83q-.62-.09-1.37-.16t-1.37-.07a11.63,11.63,0,0,0-5.32,1.13,10.94,10.94,0,0,0-3.66,2.92,12.09,12.09,0,0,0-2.12,4,14.46,14.46,0,0,0-.68,4.32,11.7,11.7,0,0,0,.24,2.46,6.34,6.34,0,0,0,.77,2,3.87,3.87,0,0,0,1.37,1.35,4,4,0,0,0,2,.49,7,7,0,0,0,2.1-.31,10.37,10.37,0,0,0,1.86-.78,10,10,0,0,0,1.57-1A11.22,11.22,0,0,0,323.8,376a12.42,12.42,0,0,1,.31-2.59q.31-1.44.71-3Z" transform="translate(-117.5 -193.22)"/><path class="cls-1" d="M338.56,358.46h2.87l-5.54,22.91H333Zm1.14-6.69a2.27,2.27,0,0,1,.64-1.75,2,2,0,0,1,1.4-.6,1.73,1.73,0,0,1,1.37.55,2.1,2.1,0,0,1,.49,1.44,2,2,0,0,1-.71,1.64,2.25,2.25,0,0,1-1.42.58,1.67,1.67,0,0,1-1.33-.51A2,2,0,0,1,339.7,351.77Z" transform="translate(-117.5 -193.22)"/><path class="cls-1" d="M359,359.26q.66-.22,1.51-.44t1.77-.4q.93-.18,1.91-.29A16.67,16.67,0,0,1,366,358a10.68,10.68,0,0,1,3.39.51,5.25,5.25,0,0,1,2.55,1.84,18.52,18.52,0,0,1,4-1.84,11.6,11.6,0,0,1,3.34-.51,11.34,11.34,0,0,1,2.81.33,5.81,5.81,0,0,1,2.28,1.13,5.48,5.48,0,0,1,1.55,2.17,9.13,9.13,0,0,1,.58,3.5,16.51,16.51,0,0,1-.18,2.37q-.18,1.22-.49,2.46l-2.75,11.39H380.2l2.44-10.19q.35-1.46.66-3a14.31,14.31,0,0,0,.31-2.88,6.36,6.36,0,0,0-.35-2.28,3.46,3.46,0,0,0-1-1.44,3.59,3.59,0,0,0-1.48-.73,7.85,7.85,0,0,0-1.81-.2,11.52,11.52,0,0,0-2.41.33,11.78,11.78,0,0,0-3.56,1.66,11,11,0,0,1,.27,2.48,16.51,16.51,0,0,1-.18,2.37,25,25,0,0,1-.49,2.46l-2.75,11.39H367l2.44-10.19q.35-1.46.66-3a14.31,14.31,0,0,0,.31-2.88,6.32,6.32,0,0,0-.36-2.28,3.46,3.46,0,0,0-1-1.44,3.6,3.6,0,0,0-1.49-.73,7.92,7.92,0,0,0-1.82-.2,14.4,14.4,0,0,0-2.18.18,19.19,19.19,0,0,0-2.13.44l-4.83,20.07h-2.87Z" transform="translate(-117.5 -193.22)"/><path class="cls-1" d="M405.44,381.64a7.24,7.24,0,0,1-.46-1.22,8.88,8.88,0,0,1-.29-1.4,10.48,10.48,0,0,1-3.26,2.22,9.15,9.15,0,0,1-3.53.71,7.6,7.6,0,0,1-2.71-.49,6.09,6.09,0,0,1-2.26-1.51,7.52,7.52,0,0,1-1.58-2.64,11,11,0,0,1-.6-3.83,17.16,17.16,0,0,1,1.15-6.43,14.05,14.05,0,0,1,3.21-4.9A14.48,14.48,0,0,1,400,359a16.66,16.66,0,0,1,6.14-1.11,15.16,15.16,0,0,1,5.28.93L408,372.65q-.27,1.11-.44,2.08a10.42,10.42,0,0,0-.18,1.86,11,11,0,0,0,.22,2.26,11.56,11.56,0,0,0,.8,2.35ZM408,360.95q-.8-.18-1.47-.27a10.52,10.52,0,0,0-1.38-.09,10.79,10.79,0,0,0-4.88,1.06,11.2,11.2,0,0,0-3.6,2.79,12.36,12.36,0,0,0-2.24,3.94,13.57,13.57,0,0,0-.78,4.52,11,11,0,0,0,.35,3,5.23,5.23,0,0,0,1,2,3.72,3.72,0,0,0,1.44,1.06,4.63,4.63,0,0,0,1.76.33,7.09,7.09,0,0,0,3.42-.86,11.25,11.25,0,0,0,3-2.46,12.49,12.49,0,0,1,.35-2.75q.35-1.55.66-2.79Z" transform="translate(-117.5 -193.22)"/><path class="cls-1" d="M418.5,359.26q1.73-.49,3.67-.86A20.24,20.24,0,0,1,426,358a13.13,13.13,0,0,1,3,.33,6.2,6.2,0,0,1,2.48,1.17,5.8,5.8,0,0,1,1.68,2.22,8.28,8.28,0,0,1,.62,3.41,16.59,16.59,0,0,1-.18,2.37q-.18,1.22-.49,2.46l-2.75,11.39h-2.87L430,371.18q.35-1.46.64-3a18.58,18.58,0,0,0,.33-2.88,5.3,5.3,0,0,0-.42-2.26,3.67,3.67,0,0,0-1.15-1.42,4.62,4.62,0,0,0-1.71-.75,9.2,9.2,0,0,0-2-.22,16,16,0,0,0-2.35.18q-1.2.18-2.35.44l-4.83,20.07h-2.87Z" transform="translate(-117.5 -193.22)"/><path class="cls-1" d="M435.68,385.32a7.45,7.45,0,0,0,2.68,1.24,12.91,12.91,0,0,0,3.48.49,9.43,9.43,0,0,0,6.27-1.86,8.87,8.87,0,0,0,2.86-5.27l.23-1.15a10.6,10.6,0,0,1-2.84,1.26,11.14,11.14,0,0,1-3,.42,8.07,8.07,0,0,1-3.3-.62,6.08,6.08,0,0,1-2.28-1.71,7.38,7.38,0,0,1-1.33-2.53,10.4,10.4,0,0,1-.44-3.08,15.39,15.39,0,0,1,.91-5.12,13.67,13.67,0,0,1,2.81-4.7,14.69,14.69,0,0,1,4.76-3.43,16,16,0,0,1,6.8-1.33,13.17,13.17,0,0,1,3,.33,9.69,9.69,0,0,1,2.53,1l-5,20.65a25.88,25.88,0,0,1-1.15,3.63,9.3,9.3,0,0,1-2.08,3.15,10,10,0,0,1-3.66,2.22,17.25,17.25,0,0,1-5.87.84,13.09,13.09,0,0,1-1.6-.11,16,16,0,0,1-1.79-.33q-.91-.22-1.75-.51a7.92,7.92,0,0,1-1.51-.69Zm19.85-24.42a11.37,11.37,0,0,0-2.75-.35,12.23,12.23,0,0,0-5.3,1.06,11.33,11.33,0,0,0-3.7,2.73,11.11,11.11,0,0,0-2.17,3.68,11.67,11.67,0,0,0-.71,3.88,11.41,11.41,0,0,0,.22,2.28,5.26,5.26,0,0,0,.75,1.88,3.7,3.7,0,0,0,1.46,1.26,5.33,5.33,0,0,0,2.39.46,9.57,9.57,0,0,0,3.12-.55,14.42,14.42,0,0,0,3.07-1.48Z" transform="translate(-117.5 -193.22)"/><path class="cls-1" d="M466.18,358.46h2.87l-5.54,22.91h-2.87Zm1.14-6.69A2.28,2.28,0,0,1,468,350a2,2,0,0,1,1.4-.6,1.74,1.74,0,0,1,1.37.55,2.1,2.1,0,0,1,.49,1.44,2,2,0,0,1-.71,1.64,2.25,2.25,0,0,1-1.42.58,1.67,1.67,0,0,1-1.33-.51A2,2,0,0,1,467.32,351.77Z" transform="translate(-117.5 -193.22)"/><path class="cls-1" d="M486.4,381.64a7.24,7.24,0,0,1-.46-1.22,8.82,8.82,0,0,1-.29-1.4,10.48,10.48,0,0,1-3.26,2.22,9.15,9.15,0,0,1-3.53.71,7.6,7.6,0,0,1-2.71-.49,6.08,6.08,0,0,1-2.26-1.51,7.53,7.53,0,0,1-1.58-2.64,11,11,0,0,1-.6-3.83,17.16,17.16,0,0,1,1.15-6.43,14,14,0,0,1,3.21-4.9A14.48,14.48,0,0,1,481,359a16.66,16.66,0,0,1,6.14-1.11,15.16,15.16,0,0,1,5.28.93L489,372.65q-.27,1.11-.44,2.08a10.42,10.42,0,0,0-.18,1.86,11,11,0,0,0,.22,2.26,11.59,11.59,0,0,0,.8,2.35ZM489,360.95q-.8-.18-1.46-.27a10.53,10.53,0,0,0-1.38-.09,10.8,10.8,0,0,0-4.88,1.06,11.21,11.21,0,0,0-3.6,2.79,12.36,12.36,0,0,0-2.24,3.94,13.56,13.56,0,0,0-.78,4.52,11,11,0,0,0,.36,3,5.22,5.22,0,0,0,1,2,3.72,3.72,0,0,0,1.44,1.06,4.63,4.63,0,0,0,1.76.33,7.09,7.09,0,0,0,3.42-.86,11.23,11.23,0,0,0,3-2.46,12.52,12.52,0,0,1,.35-2.75q.35-1.55.67-2.79Z" transform="translate(-117.5 -193.22)"/><path class="cls-1" d="M499.42,359.48a24.19,24.19,0,0,1,3.7-1.11,18.41,18.41,0,0,1,4-.44,13.71,13.71,0,0,1,1.95.13,8.69,8.69,0,0,1,1.77.44l-.75,2.61a12,12,0,0,0-3.54-.53,15.23,15.23,0,0,0-2.3.18,16.19,16.19,0,0,0-2.3.53l-4.83,20.07h-2.87Z" transform="translate(-117.5 -193.22)"/><path class="cls-1" d="M530.64,363.83a6.34,6.34,0,0,1-1.22,4,8.22,8.22,0,0,1-3.41,2.46,20.8,20.8,0,0,1-5.27,1.31q-3.08.4-6.85.58v.93a10.21,10.21,0,0,0,.27,2.39,4.49,4.49,0,0,0,1,1.93,4.85,4.85,0,0,0,2,1.31,9.17,9.17,0,0,0,3.26.49,11.63,11.63,0,0,0,6.12-1.77l.31,2.66a13.81,13.81,0,0,1-3.32,1.31,14.76,14.76,0,0,1-3.68.47,11.78,11.78,0,0,1-4.1-.62,7,7,0,0,1-2.7-1.73,6.36,6.36,0,0,1-1.48-2.66,12.38,12.38,0,0,1-.44-3.41,18.94,18.94,0,0,1,.86-5.63,16,16,0,0,1,2.55-5,13,13,0,0,1,4.14-3.57,11.45,11.45,0,0,1,5.61-1.35,6.55,6.55,0,0,1,4.76,1.62A5.7,5.7,0,0,1,530.64,363.83ZM524,360.55a7.7,7.7,0,0,0-3.32.73,9.87,9.87,0,0,0-2.79,2,12.88,12.88,0,0,0-2.15,2.88,13.89,13.89,0,0,0-1.35,3.46,49.78,49.78,0,0,0,6.34-.49,16.4,16.4,0,0,0,4.14-1.11,5.14,5.14,0,0,0,2.24-1.71,4,4,0,0,0,.66-2.28,3.18,3.18,0,0,0-1-2.59A4.13,4.13,0,0,0,524,360.55Z" transform="translate(-117.5 -193.22)"/><path class="cls-1" d="M528.91,387.27a17.29,17.29,0,0,0,1.64-2.48,24.94,24.94,0,0,0,1.31-2.77,23.61,23.61,0,0,0,.89-2.66,19.87,19.87,0,0,0,.47-2.19h3.1a19.25,19.25,0,0,1-.82,3,22.9,22.9,0,0,1-1.33,3A32.33,32.33,0,0,1,532.5,386a19.72,19.72,0,0,1-1.82,2.35Z" transform="translate(-117.5 -193.22)"/><path class="cls-1" d="M558.13,359.26q.67-.22,1.51-.44t1.77-.4q.93-.18,1.91-.29a16.67,16.67,0,0,1,1.86-.11,10.68,10.68,0,0,1,3.39.51,5.25,5.25,0,0,1,2.55,1.84,18.52,18.52,0,0,1,4-1.84,11.6,11.6,0,0,1,3.34-.51,11.34,11.34,0,0,1,2.81.33,5.8,5.8,0,0,1,2.28,1.13,5.48,5.48,0,0,1,1.55,2.17,9.15,9.15,0,0,1,.58,3.5,16.45,16.45,0,0,1-.18,2.37q-.18,1.22-.49,2.46l-2.75,11.39h-2.87l2.44-10.19q.35-1.46.67-3a14.34,14.34,0,0,0,.31-2.88,6.34,6.34,0,0,0-.35-2.28,3.45,3.45,0,0,0-1-1.44,3.58,3.58,0,0,0-1.48-.73,7.85,7.85,0,0,0-1.81-.2,11.54,11.54,0,0,0-2.41.33,11.78,11.78,0,0,0-3.56,1.66,11.06,11.06,0,0,1,.27,2.48,16.58,16.58,0,0,1-.18,2.37q-.18,1.22-.49,2.46L569,381.38h-2.87l2.44-10.19q.35-1.46.66-3a14.27,14.27,0,0,0,.31-2.88,6.33,6.33,0,0,0-.36-2.28,3.47,3.47,0,0,0-1-1.44,3.6,3.6,0,0,0-1.49-.73,7.92,7.92,0,0,0-1.82-.2,14.39,14.39,0,0,0-2.18.18,19.19,19.19,0,0,0-2.13.44l-4.83,20.07h-2.87Z" transform="translate(-117.5 -193.22)"/><path class="cls-1" d="M609.48,363.83a6.34,6.34,0,0,1-1.22,4,8.22,8.22,0,0,1-3.41,2.46,20.8,20.8,0,0,1-5.27,1.31q-3.08.4-6.85.58v.93a10.21,10.21,0,0,0,.27,2.39,4.49,4.49,0,0,0,1,1.93,4.85,4.85,0,0,0,2,1.31,9.17,9.17,0,0,0,3.26.49,11.63,11.63,0,0,0,6.12-1.77l.31,2.66a13.81,13.81,0,0,1-3.32,1.31,14.76,14.76,0,0,1-3.68.47,11.78,11.78,0,0,1-4.1-.62,7,7,0,0,1-2.7-1.73,6.36,6.36,0,0,1-1.48-2.66,12.38,12.38,0,0,1-.44-3.41,18.94,18.94,0,0,1,.86-5.63,16,16,0,0,1,2.55-5,13,13,0,0,1,4.14-3.57,11.45,11.45,0,0,1,5.61-1.35,6.55,6.55,0,0,1,4.76,1.62A5.7,5.7,0,0,1,609.48,363.83Zm-6.69-3.28a7.7,7.7,0,0,0-3.32.73,9.87,9.87,0,0,0-2.79,2,12.88,12.88,0,0,0-2.15,2.88,13.89,13.89,0,0,0-1.35,3.46,49.78,49.78,0,0,0,6.34-.49,16.4,16.4,0,0,0,4.14-1.11,5.14,5.14,0,0,0,2.24-1.71,4,4,0,0,0,.66-2.28,3.18,3.18,0,0,0-1-2.59A4.13,4.13,0,0,0,602.79,360.55Z" transform="translate(-117.5 -193.22)"/><path class="cls-1" d="M616.14,359.26q1.73-.49,3.67-.86a20.25,20.25,0,0,1,3.85-.38,13.14,13.14,0,0,1,3,.33,6.22,6.22,0,0,1,2.48,1.17,5.82,5.82,0,0,1,1.68,2.22,8.3,8.3,0,0,1,.62,3.41,16.45,16.45,0,0,1-.18,2.37,24.82,24.82,0,0,1-.49,2.46L628,381.38h-2.87l2.44-10.19q.35-1.46.64-3a18.59,18.59,0,0,0,.33-2.88,5.28,5.28,0,0,0-.42-2.26,3.66,3.66,0,0,0-1.15-1.42,4.61,4.61,0,0,0-1.71-.75,9.19,9.19,0,0,0-2-.22,16,16,0,0,0-2.35.18q-1.2.18-2.35.44l-4.83,20.07h-2.87Z" transform="translate(-117.5 -193.22)"/><path class="cls-1" d="M634.74,377.74a12.68,12.68,0,0,0,2.88,1.2,11.52,11.52,0,0,0,2.79.31,9.09,9.09,0,0,0,2.13-.24,5.64,5.64,0,0,0,1.77-.73,3.59,3.59,0,0,0,1.2-1.29,3.78,3.78,0,0,0,.44-1.86,2.83,2.83,0,0,0-.64-1.91,6.11,6.11,0,0,0-1.59-1.31q-1-.55-2.06-1.09a12.39,12.39,0,0,1-2.06-1.24,6.11,6.11,0,0,1-1.6-1.77,5.25,5.25,0,0,1-.64-2.75,6.93,6.93,0,0,1,.71-3.26,6.3,6.3,0,0,1,1.91-2.22,8.08,8.08,0,0,1,2.75-1.26,12.76,12.76,0,0,1,3.19-.4,16.35,16.35,0,0,1,2.81.24,14.69,14.69,0,0,1,2.68.73l-1.15,2.57a11,11,0,0,0-2.13-.64,12.43,12.43,0,0,0-2.48-.24,9.48,9.48,0,0,0-2.06.22,5.05,5.05,0,0,0-1.75.73,4.05,4.05,0,0,0-1.22,1.29,3.61,3.61,0,0,0-.46,1.88,2.83,2.83,0,0,0,.64,1.91,6.57,6.57,0,0,0,1.57,1.33,17.56,17.56,0,0,0,2.06,1.09,10.58,10.58,0,0,1,2.06,1.22,6.69,6.69,0,0,1,1.57,1.71,4.63,4.63,0,0,1,.64,2.55,7.26,7.26,0,0,1-.73,3.37,6.54,6.54,0,0,1-1.93,2.3,8.15,8.15,0,0,1-2.75,1.31,12.12,12.12,0,0,1-3.19.42,16.26,16.26,0,0,1-3.46-.38,11.25,11.25,0,0,1-3.15-1.17Z" transform="translate(-117.5 -193.22)"/><path class="cls-1" d="M668.13,381.64a7.24,7.24,0,0,1-.46-1.22,8.82,8.82,0,0,1-.29-1.4,10.48,10.48,0,0,1-3.26,2.22,9.15,9.15,0,0,1-3.53.71,7.6,7.6,0,0,1-2.71-.49,6.08,6.08,0,0,1-2.26-1.51,7.53,7.53,0,0,1-1.58-2.64,11,11,0,0,1-.6-3.83,17.16,17.16,0,0,1,1.15-6.43,14,14,0,0,1,3.21-4.9,14.48,14.48,0,0,1,4.88-3.12,16.66,16.66,0,0,1,6.14-1.11,15.16,15.16,0,0,1,5.28.93l-3.41,13.78q-.27,1.11-.44,2.08a10.42,10.42,0,0,0-.18,1.86,11,11,0,0,0,.22,2.26,11.59,11.59,0,0,0,.8,2.35Zm2.57-20.69q-.8-.18-1.46-.27a10.53,10.53,0,0,0-1.38-.09,10.8,10.8,0,0,0-4.88,1.06,11.21,11.21,0,0,0-3.6,2.79,12.36,12.36,0,0,0-2.24,3.94,13.56,13.56,0,0,0-.78,4.52,11,11,0,0,0,.36,3,5.22,5.22,0,0,0,1,2,3.72,3.72,0,0,0,1.44,1.06,4.63,4.63,0,0,0,1.76.33,7.09,7.09,0,0,0,3.42-.86,11.23,11.23,0,0,0,3-2.46,12.52,12.52,0,0,1,.35-2.75q.35-1.55.67-2.79Z" transform="translate(-117.5 -193.22)"/></svg>